<svg xmlns="http://www.w3.org/2000/svg" width="23" height="17" viewBox="0 0 23 17">
  <path id="Icon_material-more" data-name="Icon material-more" d="M21.083,4.5H6.708a1.81,1.81,0,0,0-1.524.831L0,13l5.185,7.659a1.938,1.938,0,0,0,1.591.841H21.083A1.909,1.909,0,0,0,23,19.611V6.389A1.909,1.909,0,0,0,21.083,4.5ZM8.625,14.417A1.417,1.417,0,1,1,10.063,13,1.425,1.425,0,0,1,8.625,14.417Zm4.792,0A1.417,1.417,0,1,1,14.854,13,1.425,1.425,0,0,1,13.417,14.417Zm4.792,0A1.417,1.417,0,1,1,19.646,13,1.425,1.425,0,0,1,18.208,14.417Z" transform="translate(0 -4.5)"/>
</svg>
