<svg xmlns="http://www.w3.org/2000/svg" width="95.835" height="93.407" viewBox="0 0 95.835 93.407">
  <path id="Icon_awesome-arrow-right" data-name="Icon awesome-arrow-right" d="M40.747,8.9,45.5,4.155a5.112,5.112,0,0,1,7.251,0L94.327,45.715a5.112,5.112,0,0,1,0,7.251L52.746,94.547a5.112,5.112,0,0,1-7.251,0L40.747,89.8a5.139,5.139,0,0,1,.086-7.337L66.606,57.907H5.133A5.121,5.121,0,0,1,0,52.773V45.929A5.121,5.121,0,0,1,5.133,40.8H66.606L40.832,16.24A5.1,5.1,0,0,1,40.747,8.9Z" transform="translate(0 -2.647)"/>
</svg>
