<svg xmlns="http://www.w3.org/2000/svg" width="27.735" height="27.735" viewBox="0 0 27.735 27.735">
  <path id="Icon_awesome-user-circle" data-name="Icon awesome-user-circle" d="M13.868.562A13.868,13.868,0,1,0,27.735,14.43,13.865,13.865,0,0,0,13.868.562Zm0,5.368a4.921,4.921,0,1,1-4.921,4.921A4.921,4.921,0,0,1,13.868,5.931Zm0,19.236a10.715,10.715,0,0,1-8.192-3.814,6.234,6.234,0,0,1,5.508-3.344,1.368,1.368,0,0,1,.4.062,7.4,7.4,0,0,0,2.287.386,7.375,7.375,0,0,0,2.287-.386,1.368,1.368,0,0,1,.4-.062,6.234,6.234,0,0,1,5.508,3.344A10.715,10.715,0,0,1,13.868,25.166Z" transform="translate(0 -0.562)"/>
</svg>
