<svg xmlns="http://www.w3.org/2000/svg" width="24" height="19" viewBox="0 0 24 19">
  <path id="Icon_map-lawyer" data-name="Icon map-lawyer" d="M.142,14.832a3.115,3.115,0,0,0,3.073,2.738,3.115,3.115,0,0,0,3.073-2.738Zm16.746,6.334a.491.491,0,0,1-.14.345.476.476,0,0,1-.339.144H7.453a.486.486,0,0,1,0-.973h8.954A.481.481,0,0,1,16.887,21.166ZM7.026,21.9h9.81v1.407H7.026Zm10.686-7.072a3.092,3.092,0,0,0,6.144,0Zm5.976-.979-2.517-3.519h1.345a.606.606,0,0,0,0-1.212H15.389a3.544,3.544,0,0,0-2.7-2.306v-1.9a.6.6,0,0,0-.6-.607l-.056.006-.056-.006a.591.591,0,0,0-.423.177.609.609,0,0,0-.174.43v1.9a3.542,3.542,0,0,0-2.7,2.306H1.548a.606.606,0,0,0,0,1.212H2.832L.314,13.853H0v.65H6.431v-.65H6.115L3.6,10.335H9.44a2.606,2.606,0,0,1,.035-.4.58.58,0,0,0,.035-.187,2.572,2.572,0,0,1,1.87-1.916V14.5h-.025a7.4,7.4,0,0,1-2.973,5.93h7.3a7.413,7.413,0,0,1-2.976-5.93h-.023V7.83a2.571,2.571,0,0,1,1.869,1.916.624.624,0,0,0,.036.187,2.741,2.741,0,0,1,.031.4H20.4l-2.517,3.519h-.314v.65H24v-.65Zm-20.728,0H.95l2.009-2.809v2.809Zm.514,0V11.044l2.009,2.809H3.473Zm17.055,0h-2.01l2.01-2.809Zm.512,0V11.044l2.011,2.809ZM3.812,8.275a.6.6,0,1,1-.6-.607A.6.6,0,0,1,3.812,8.275Zm17.57-.032a.6.6,0,0,1-.6.6.588.588,0,0,1-.422-.176A.637.637,0,0,1,20.48,7.7a.589.589,0,0,1,.61,0A.608.608,0,0,1,21.382,8.243Z" transform="translate(0 -4.311)" fill="#929dbd"/>
</svg>
