<svg xmlns="http://www.w3.org/2000/svg" width="24" height="21" viewBox="0 0 24 21">
  <path id="Icon_awesome-piggy-bank" data-name="Icon awesome-piggy-bank" d="M23.335,9.188H22.106a6.586,6.586,0,0,0-1.558-2.153l.788-3.1H20A4,4,0,0,0,16.96,5.344,6.71,6.71,0,0,0,16,5.25H10.668A6.648,6.648,0,0,0,4.134,10.5h-1.8a.99.99,0,0,1-.979-1.181,1.023,1.023,0,0,1,1.021-.788h.042a.249.249,0,0,0,.25-.246v-.82a.249.249,0,0,0-.25-.246,2.376,2.376,0,0,0-2.4,1.993,2.312,2.312,0,0,0,2.313,2.6H4a6.5,6.5,0,0,0,2.667,5.221v3.31A.663.663,0,0,0,7.334,21H10a.663.663,0,0,0,.667-.656V18.375H16v1.969a.663.663,0,0,0,.667.656h2.667A.663.663,0,0,0,20,20.344v-3.31a6.617,6.617,0,0,0,1.3-1.284h2.029A.663.663,0,0,0,24,15.094V9.844A.663.663,0,0,0,23.335,9.188ZM18,11.813a.656.656,0,1,1,.667-.656A.663.663,0,0,1,18,11.813ZM10.668,3.937H16c.225,0,.446.016.663.033,0-.012,0-.021,0-.033a4,4,0,0,0-8,0c0,.086.021.168.025.254A8.04,8.04,0,0,1,10.668,3.937Z" transform="translate(-0.002)" fill="#929dbd"/>
</svg>
