<svg xmlns="http://www.w3.org/2000/svg" width="22" height="22" viewBox="0 0 22 22">
  <path id="Icon_awesome-book-reader" data-name="Icon awesome-book-reader" d="M15.125,4.125A4.125,4.125,0,1,0,11,8.25,4.125,4.125,0,0,0,15.125,4.125ZM10.037,10.36C7.488,8.8,3.358,8.37,1.28,8.252A1.189,1.189,0,0,0,0,9.416V18.99a1.182,1.182,0,0,0,1.138,1.162c1.876.1,5.671.459,8.295,1.78a.6.6,0,0,0,.88-.51V10.852a.572.572,0,0,0-.276-.492ZM20.719,8.252c-2.077.118-6.207.547-8.756,2.108a.582.582,0,0,0-.275.5V21.421a.6.6,0,0,0,.883.511c2.623-1.32,6.416-1.681,8.292-1.779A1.182,1.182,0,0,0,22,18.99V9.416A1.189,1.189,0,0,0,20.719,8.252Z" fill="#48c989"/>
</svg>
