<svg xmlns="http://www.w3.org/2000/svg" width="20.06" height="20.06" viewBox="0 0 20.06 20.06">
  <path id="Icon_awesome-plus" data-name="Icon awesome-plus" d="M18.627,10.131H12.179V3.683A1.433,1.433,0,0,0,10.746,2.25H9.313A1.433,1.433,0,0,0,7.881,3.683v6.448H1.433A1.433,1.433,0,0,0,0,11.563V13a1.433,1.433,0,0,0,1.433,1.433H7.881v6.448A1.433,1.433,0,0,0,9.313,22.31h1.433a1.433,1.433,0,0,0,1.433-1.433V14.429h6.448A1.433,1.433,0,0,0,20.06,13V11.563A1.433,1.433,0,0,0,18.627,10.131Z" transform="translate(0 -2.25)" fill="#48c989"/>
</svg>
