<svg xmlns="http://www.w3.org/2000/svg" width="37.158" height="24.009" viewBox="0 0 37.158 24.009">
  <path id="Icon_material-people" data-name="Icon material-people" d="M26.153,17.361a4.931,4.931,0,1,0-4.931-4.931A4.91,4.91,0,0,0,26.153,17.361ZM13,17.361a4.931,4.931,0,1,0-4.931-4.931A4.91,4.91,0,0,0,13,17.361Zm0,3.287c-3.829,0-11.5,1.923-11.5,5.752v4.109H24.509V26.4C24.509,22.571,16.834,20.648,13,20.648Zm13.148,0c-.477,0-1.019.033-1.594.082A6.936,6.936,0,0,1,27.8,26.4v4.109h9.861V26.4C37.658,22.571,29.982,20.648,26.153,20.648Z" transform="translate(-1 -7)" fill="#48c989" stroke="#48c989" stroke-width="1"/>
</svg>
