<svg xmlns="http://www.w3.org/2000/svg" width="33.002" height="25.101" viewBox="0 0 33.002 25.101">
  <path id="Icon_awesome-home" data-name="Icon awesome-home" d="M15.575,8.48,5.333,16.615V25.4a.873.873,0,0,0,.889.857l6.225-.016a.873.873,0,0,0,.884-.857V20.253a.873.873,0,0,1,.889-.857h3.555a.873.873,0,0,1,.889.857v5.124a.842.842,0,0,0,.259.608.906.906,0,0,0,.629.252l6.223.017a.873.873,0,0,0,.889-.857V16.61L16.425,8.48A.7.7,0,0,0,15.575,8.48Zm16.178,5.53-4.644-3.692V2.9a.655.655,0,0,0-.667-.643H23.331a.655.655,0,0,0-.667.643v3.89L17.691,2.84a2.743,2.743,0,0,0-3.389,0L.241,14.009a.627.627,0,0,0-.089.905l1.417,1.661a.674.674,0,0,0,.451.232.683.683,0,0,0,.488-.144L15.575,6.283a.7.7,0,0,1,.85,0l13.067,10.38a.684.684,0,0,0,.939-.086l1.417-1.661A.627.627,0,0,0,32,14.444a.637.637,0,0,0-.243-.435Z" transform="translate(0.502 -1.653)" fill="#48c989" stroke="#48c989" stroke-width="1"/>
</svg>
