<svg xmlns="http://www.w3.org/2000/svg" width="26.697" height="26.692" viewBox="0 0 26.697 26.692">
  <path id="Icon_awesome-instagram" data-name="Icon awesome-instagram" d="M12.786,8.467a6.556,6.556,0,1,0,6.556,6.556A6.546,6.546,0,0,0,12.786,8.467Zm0,10.819a4.262,4.262,0,1,1,4.262-4.262,4.27,4.27,0,0,1-4.262,4.262ZM21.14,8.2A1.529,1.529,0,1,1,19.611,6.67,1.526,1.526,0,0,1,21.14,8.2Zm4.342,1.552a7.568,7.568,0,0,0-2.066-5.358,7.618,7.618,0,0,0-5.358-2.066c-2.111-.12-8.439-.12-10.551,0A7.607,7.607,0,0,0,2.15,4.387,7.593,7.593,0,0,0,.085,9.746c-.12,2.111-.12,8.439,0,10.551A7.568,7.568,0,0,0,2.15,25.654,7.627,7.627,0,0,0,7.508,27.72c2.111.12,8.439.12,10.551,0a7.568,7.568,0,0,0,5.358-2.066A7.618,7.618,0,0,0,25.483,20.3c.12-2.111.12-8.434,0-10.545Zm-2.728,12.81a4.315,4.315,0,0,1-2.431,2.431c-1.683.668-5.678.514-7.538.514s-5.86.148-7.538-.514a4.315,4.315,0,0,1-2.431-2.431C2.15,20.878,2.3,16.884,2.3,15.024s-.148-5.86.514-7.538A4.315,4.315,0,0,1,5.249,5.055c1.683-.668,5.678-.514,7.538-.514s5.86-.148,7.538.514a4.315,4.315,0,0,1,2.431,2.431c.668,1.683.514,5.678.514,7.538S23.423,20.884,22.755,22.561Z" transform="translate(0.565 -1.678)" fill="#48c989" stroke="#48c989" stroke-width="1"/>
</svg>
