<svg xmlns="http://www.w3.org/2000/svg" width="33.15" height="26.699" viewBox="0 0 33.15 26.699">
  <path id="Icon_awesome-twitter" data-name="Icon awesome-twitter" d="M28.249,9.754c.02.28.02.559.02.839,0,8.531-6.493,18.36-18.36,18.36A18.235,18.235,0,0,1,0,26.056a13.349,13.349,0,0,0,1.558.08,12.923,12.923,0,0,0,8.011-2.757A6.464,6.464,0,0,1,3.536,18.9a8.138,8.138,0,0,0,1.219.1,6.825,6.825,0,0,0,1.7-.22,6.454,6.454,0,0,1-5.174-6.333v-.08A6.5,6.5,0,0,0,4.2,13.19a6.463,6.463,0,0,1-2-8.631A18.342,18.342,0,0,0,15.5,11.312a7.285,7.285,0,0,1-.16-1.478A6.459,6.459,0,0,1,26.511,5.419a12.7,12.7,0,0,0,4.1-1.558,6.436,6.436,0,0,1-2.837,3.556,12.936,12.936,0,0,0,3.716-1,13.871,13.871,0,0,1-3.236,3.336Z" transform="translate(0.271 -2.753)" fill="#48c989" stroke="#48c989" stroke-width="1"/>
</svg>
