<svg xmlns="http://www.w3.org/2000/svg" width="24" height="19.199" viewBox="0 0 24 19.199">
  <path id="Icon_awesome-people-carry" data-name="Icon awesome-people-carry" d="M4.8,3.6A1.8,1.8,0,1,0,3,1.8,1.8,1.8,0,0,0,4.8,3.6Zm14.4,0a1.8,1.8,0,1,0-1.8-1.8A1.8,1.8,0,0,0,19.2,3.6Zm4.714,13.953-1.65-4.125-1.541,1.74-.075.682,1.039,2.595A1.2,1.2,0,0,0,22.8,19.2a1.166,1.166,0,0,0,.446-.086A1.2,1.2,0,0,0,23.912,17.553ZM22.63,9.686l-.694-3.007A2.43,2.43,0,0,0,20.53,4.995a2.314,2.314,0,0,0-2.1.124,4.108,4.108,0,0,0-1.8,2.227L16.2,8.617,15.6,9V5.4a.6.6,0,0,0-.6-.6H9a.6.6,0,0,0-.6.6V9l-.6-.382L7.372,7.346a4.079,4.079,0,0,0-1.8-2.227,2.314,2.314,0,0,0-2.1-.124A2.43,2.43,0,0,0,2.058,6.678l-.69,3.007a2.4,2.4,0,0,0,.54,2.126l2.52,2.846.379,3.472A1.2,1.2,0,0,0,6,19.2c.045,0,.086,0,.131-.007a1.2,1.2,0,0,0,1.061-1.324l-.379-3.48a2.4,2.4,0,0,0-.585-1.312L4.6,11.238,5.264,8.6l.255.765a2.425,2.425,0,0,0,.919,1.222l1.916,1.219A1.6,1.6,0,0,0,9,12h6a1.6,1.6,0,0,0,.645-.187L17.56,10.59a2.41,2.41,0,0,0,.919-1.222l.255-.765.66,2.636L17.77,13.076a2.4,2.4,0,0,0-.585,1.312l-.379,3.48a1.2,1.2,0,0,0,1.061,1.324c.045,0,.086.007.131.007a1.2,1.2,0,0,0,1.192-1.069l.379-3.472,2.52-2.846a2.413,2.413,0,0,0,.54-2.126ZM1.736,13.428.086,17.553a1.2,1.2,0,0,0,2.227.892l1.039-2.595-.075-.682-1.541-1.74Z" transform="translate(0.001)" fill="#48c989"/>
</svg>
