<svg xmlns="http://www.w3.org/2000/svg" width="24" height="14.4" viewBox="0 0 24 14.4">
  <path id="Icon_awesome-graduation-cap" data-name="Icon awesome-graduation-cap" d="M23.338,7.845,12.878,4.631a3,3,0,0,0-1.755,0L.662,7.845a.883.883,0,0,0,0,1.71l1.824.56a2.955,2.955,0,0,0-.67,1.759,1.157,1.157,0,0,0-.1,1.988L.763,18.17a.6.6,0,0,0,.585.73h2.1a.6.6,0,0,0,.586-.73L3.08,13.862a1.154,1.154,0,0,0-.067-1.969,1.769,1.769,0,0,1,.776-1.377l7.334,2.253a3,3,0,0,0,1.755,0L23.338,9.555a.883.883,0,0,0,0-1.71ZM13.23,13.916a4.2,4.2,0,0,1-2.46,0L5.332,12.245,4.8,16.5c0,1.326,3.223,2.4,7.2,2.4s7.2-1.074,7.2-2.4l-.532-4.255L13.23,13.916Z" transform="translate(0 -4.5)" fill="#48c989"/>
</svg>
